<?xml version="1.0" encoding="utf-8"?>
<!-- Generator: Adobe Illustrator 22.0.1, SVG Export Plug-In . SVG Version: 6.00 Build 0)  -->
<svg version="1.1" id="Capa_1" xmlns="http://www.w3.org/2000/svg" xmlns:xlink="http://www.w3.org/1999/xlink" x="0px" y="0px"
	 viewBox="-334.1 575.6 374.1 111.9" style="enable-background:new -334.1 575.6 374.1 111.9;" xml:space="preserve">
<style type="text/css">
	.st0{fill:#3D3D3C;}
	.st1{fill:url(#XMLID_2_);}
	.st2{fill:url(#XMLID_3_);}
	.st3{fill:url(#XMLID_4_);}
</style>
<g id="XMLID_741_">
	<rect id="XMLID_759_" x="-334.1" y="647.3" class="st0" width="9.8" height="39.4"/>
	<polygon id="XMLID_758_" class="st0" points="-290.9,669.5 -309.9,647.3 -317.4,647.3 -317.4,686.7 -307.6,686.7 -307.6,665.1 
		-288.7,686.7 -281.1,686.7 -281.1,647.3 -290.9,647.3 	"/>
	<polygon id="XMLID_757_" class="st0" points="-274.2,686.7 -264.4,686.7 -264.4,672.8 -247.5,672.8 -247.5,664.3 -264.4,664.3 
		-264.4,655.9 -244.9,655.9 -244.9,647.3 -274.2,647.3 	"/>
	<path id="XMLID_754_" class="st0" d="M-220.6,646.5c-11.9,0-20.8,9-20.8,20.5s9,20.5,20.8,20.5c11.9,0,20.9-9,20.9-20.5
		S-208.6,646.5-220.6,646.5z M-220.6,678.4c-6.4,0-10.9-5.2-10.9-11.4s4.6-11.4,10.9-11.4s10.9,5.2,10.9,11.4
		C-209.6,673.2-214.2,678.4-220.6,678.4z"/>
	<polygon id="XMLID_753_" class="st0" points="-172.4,668.3 -186.5,647.3 -193.7,647.3 -193.7,686.7 -183.9,686.7 -184,666.8 
		-175.2,680.4 -175.2,680.5 -169.7,680.5 -169.7,680.4 -161,666.9 -161,686.7 -151.2,686.7 -151.2,647.3 -158.5,647.3 	"/>
	<polygon id="XMLID_752_" class="st0" points="-120.7,644.9 -131.6,651.2 -133,654.9 -119.7,647.3 	"/>
	<path id="XMLID_748_" class="st0" d="M-145.5,686.7h10.4l2.6-6.8h16.7l2.7,6.8h10.4l-16-38l-14.2,8.3L-145.5,686.7z M-129.2,671.6
		l5.1-13.1l5.1,13.1H-129.2z"/>
	<polygon id="XMLID_747_" class="st0" points="-102.2,656 -89.6,656 -89.6,686.7 -79.9,686.7 -79.9,656 -67.4,656 -67.4,647.3 
		-102.2,647.3 	"/>
	<rect id="XMLID_746_" x="-62.5" y="647.3" class="st0" width="9.8" height="39.4"/>
	<path id="XMLID_745_" class="st0" d="M-26,655.6c5.2,0,8.7,3.1,9.8,8h10c-1.2-10.2-9-17.1-19.7-17.1c-11.9,0-20.8,8.6-20.8,20.5
		c0,11.9,9,20.5,20.8,20.5c10.8,0,18.5-7,19.7-17.1h-10c-1.1,4.9-4.6,8-9.8,8c-6.4,0-10.9-4.8-10.9-11.3S-32.4,655.6-26,655.6z"/>
	<path id="XMLID_742_" class="st0" d="M23.2,647.1h-9.3l-16.7,39.6H7.6l2.6-6.8h16.7l2.7,6.8H40L23.2,647.1z M13.4,671.6l5.1-13.1
		l5.1,13.1H13.4z"/>
</g>
<linearGradient id="XMLID_2_" gradientUnits="userSpaceOnUse" x1="-154.2038" y1="354.8881" x2="-66.3962" y2="354.8881" gradientTransform="matrix(1 0 0 1 0 246.99)">
	<stop  offset="0" style="stop-color:#88E4A2"/>
	<stop  offset="0.2022" style="stop-color:#77D3B0"/>
	<stop  offset="0.6012" style="stop-color:#4CA7D5"/>
	<stop  offset="1" style="stop-color:#1B75FF"/>
</linearGradient>
<path id="XMLID_532_" class="st1" d="M-151.9,628.2c-0.8,0-1.5-0.4-2-1.1c-0.6-1.1-0.3-2.5,0.8-3.1l83.3-48.1
	c1.1-0.6,2.5-0.3,3.1,0.8s0.3,2.5-0.8,3.1l-83.3,48.1C-151.1,628.1-151.5,628.2-151.9,628.2z"/>
<linearGradient id="XMLID_3_" gradientUnits="userSpaceOnUse" x1="-191.1038" y1="360.8881" x2="-124.0962" y2="360.8881" gradientTransform="matrix(1 0 0 1 0 246.99)">
	<stop  offset="0" style="stop-color:#88E4A2"/>
	<stop  offset="0.2022" style="stop-color:#77D3B0"/>
	<stop  offset="0.6012" style="stop-color:#4CA7D5"/>
	<stop  offset="1" style="stop-color:#1B75FF"/>
</linearGradient>
<path id="XMLID_529_" class="st2" d="M-188.8,628.2c-0.8,0-1.5-0.4-2-1.1c-0.6-1.1-0.3-2.5,0.8-3.1l62.5-36.1
	c1.1-0.6,2.5-0.3,3.1,0.8s0.3,2.5-0.8,3.1l-62.5,36.1C-188,628.1-188.4,628.2-188.8,628.2z"/>
<linearGradient id="XMLID_4_" gradientUnits="userSpaceOnUse" x1="-227.9462" y1="366.9381" x2="-181.7849" y2="366.9381" gradientTransform="matrix(1 0 0 1 0 246.99)">
	<stop  offset="0" style="stop-color:#88E4A2"/>
	<stop  offset="0.2022" style="stop-color:#77D3B0"/>
	<stop  offset="0.6012" style="stop-color:#4CA7D5"/>
	<stop  offset="1" style="stop-color:#1B75FF"/>
</linearGradient>
<path id="XMLID_528_" class="st3" d="M-225.7,628.2c-0.8,0-1.5-0.4-2-1.1c-0.6-1.1-0.3-2.5,0.8-3.1l41.6-24c1.1-0.6,2.5-0.3,3.1,0.8
	c0.6,1.1,0.3,2.5-0.8,3.1l-41.6,24C-224.9,628.1-225.3,628.2-225.7,628.2z"/>
</svg>
