<?xml version="1.0" encoding="utf-8"?>
<!-- Generator: Adobe Illustrator 22.0.1, SVG Export Plug-In . SVG Version: 6.00 Build 0)  -->
<svg version="1.1" id="Capa_1" xmlns="http://www.w3.org/2000/svg" xmlns:xlink="http://www.w3.org/1999/xlink" x="0px" y="0px"
	 viewBox="0 0 48.2 22.2" style="enable-background:new 0 0 48.2 22.2;" xml:space="preserve">
<style type="text/css">
	.st0{fill:#FFFFFF;}
</style>
<g id="XMLID_50_">
	<g id="XMLID_59_">
		<path class="st0" d="M35.9,22.2c-0.4,0-0.8-0.2-1.1-0.5c-0.6-0.6-0.6-1.5,0-2.1l9-8.7l-9.1-8.3c-0.6-0.6-0.7-1.5-0.1-2.1
			s1.5-0.7,2.1-0.1l11.4,10.4L36.9,21.8C36.6,22.1,36.3,22.2,35.9,22.2z"/>
	</g>
	<g id="XMLID_58_">
		<path class="st0" d="M9.4,20.5c-5.2,0-9.4-4.2-9.4-9.4s4.2-9.4,9.4-9.4s9.4,4.2,9.4,9.4S14.6,20.5,9.4,20.5z M9.4,4.6
			C5.9,4.6,3,7.5,3,11.1s2.9,6.4,6.4,6.4s6.4-2.9,6.4-6.4S13,4.6,9.4,4.6z"/>
	</g>
	<g id="XMLID_57_">
		<path class="st0" d="M43.5,12.5H17.8c-0.8,0-1.5-0.7-1.5-1.5s0.7-1.5,1.5-1.5h25.7c0.8,0,1.5,0.7,1.5,1.5S44.4,12.5,43.5,12.5z"/>
	</g>
</g>
</svg>
